HIERARCHY
ROOT Hips
{
	OFFSET 2.431263 105.804756 -0.839679
	CHANNELS 6 Xposition Yposition Zposition Xrotation Yrotation Zrotation
	JOINT Chest
	{
		OFFSET 0.137531 13.634666 -0.480727
		CHANNELS 3 Xrotation Yrotation Zrotation
		JOINT Chest2
		{
			OFFSET -0.758626 20.835434 4.937201
			CHANNELS 3 Xrotation Yrotation Zrotation
			JOINT Chest3
			{
				OFFSET -0.339110 14.835098 1.620138
				CHANNELS 3 Xrotation Yrotation Zrotation
				JOINT Neck
				{
					OFFSET 0.303749 17.074753 2.641270
					CHANNELS 3 Xrotation Yrotation Zrotation
					JOINT Head
					{
						OFFSET -0.349011 10.173386 2.491608
						CHANNELS 3 Xrotation Yrotation Zrotation
						End Site
						{
							OFFSET -0.339336 10.190689 2.421244
						}
					}
				}
				JOINT LeftCollar
				{
					OFFSET 4.420043 12.582153 4.894579
					CHANNELS 3 Xrotation Yrotation Zrotation
					JOINT LeftUpArm
					{
						OFFSET 17.385195 -2.464157 -0.426980
						CHANNELS 3 Xrotation Yrotation Zrotation
						JOINT LeftLowArm
						{
							OFFSET -9.520376 -27.884842 16.478081
							CHANNELS 3 Xrotation Yrotation Zrotation
							JOINT LeftHand
							{
								OFFSET -26.144693 -3.896072 14.220522
								CHANNELS 3 Xrotation Yrotation Zrotation
								End Site
								{
									OFFSET -5.714066 -0.851547 3.107986
								}
							}
						}
					}
				}
				JOINT RightCollar
				{
					OFFSET -3.995035 12.737671 4.858006
					CHANNELS 3 Xrotation Yrotation Zrotation
					JOINT RightUpArm
					{
						OFFSET -17.432108 -1.892044 -1.018823
						CHANNELS 3 Xrotation Yrotation Zrotation
						JOINT RightLowArm
						{
							OFFSET 8.635128 -26.898941 18.482868
							CHANNELS 3 Xrotation Yrotation Zrotation
							JOINT RightHand
							{
								OFFSET 15.782438 9.436081 23.724033
								CHANNELS 3 Xrotation Yrotation Zrotation
								End Site
								{
									OFFSET 3.449399 2.062393 5.185116
								}
							}
						}
					}
				}
			}
		}
	}
	JOINT LeftUpLeg
	{
		OFFSET 9.995329 -0.075928 0.711883
		CHANNELS 3 Xrotation Yrotation Zrotation
		JOINT LeftLowLeg
		{
			OFFSET 31.388742 -34.209785 9.403484
			CHANNELS 3 Xrotation Yrotation Zrotation
			JOINT LeftFoot
			{
				OFFSET 12.833176 -39.024334 -17.691181
				CHANNELS 3 Xrotation Yrotation Zrotation
				JOINT LeftToe
				{
					OFFSET 8.792850 -20.412201 8.098589
					CHANNELS 3 Xrotation Yrotation Zrotation
					End Site
					{
						OFFSET 10.027443 -9.186483 19.355045
					}
				}
			}
		}
	}
	JOINT RightUpLeg
	{
		OFFSET -9.995335 0.075729 -0.711877
		CHANNELS 3 Xrotation Yrotation Zrotation
		JOINT RightLowLeg
		{
			OFFSET -30.580753 -34.279556 11.564664
			CHANNELS 3 Xrotation Yrotation Zrotation
			JOINT RightFoot
			{
				OFFSET -11.005363 -38.201012 -20.497440
				CHANNELS 3 Xrotation Yrotation Zrotation
				JOINT RightToe
				{
					OFFSET -12.834560 -18.630081 6.910217
					CHANNELS 3 Xrotation Yrotation Zrotation
					End Site
					{
						OFFSET -12.241829 -7.859276 18.652758
					}
				}
			}
		}
	}
}
MOTION
Frames: 11
Frame Time: 0.033333
1.287874 73.790039 -1.477043 -2.451684 1.091411 -0.696411 9.813151 -0.509370 1.740760 -2.013237 0.858333 -0.943091 -5.762739 0.784400 -0.143140 -3.489360 1.523392 0.861003 0.000001 -0.000001 -0.000000 2.526837 -6.207191 0.628448 -27.827825 -11.849525 10.338669 -3.344980 16.434455 20.910004 0.000002 -0.000003 -0.000004 1.082214 1.746391 -3.026483 -27.084564 12.832062 -6.370716 28.757613 -5.738570 -17.974874 -0.000003 0.000003 -0.000000 -20.578950 -9.034872 28.121253 44.970368 6.974340 -33.943674 -9.518849 1.010908 7.824292 -0.000004 0.000000 -0.000001 -14.062488 4.950015 -29.651344 32.330803 -1.466044 47.652160 -25.218479 -5.822239 -10.805317 0.000002 0.000000 0.000001 
1.185153 73.865517 -1.502838 -1.934095 1.387660 -0.827551 9.004970 -0.524788 2.127171 -1.688694 0.791515 -0.884303 -5.584133 0.868649 -0.281427 -3.757816 1.340170 0.884670 -0.000000 0.000001 -0.000000 2.623898 -5.902216 -0.092368 -25.727603 -10.712557 9.797039 -4.270920 16.209036 19.447548 0.000005 -0.000007 -0.000002 1.119049 1.346588 -2.361584 -25.482174 12.050692 -5.977666 27.487333 -5.349440 -17.294705 -0.000001 -0.000004 -0.000003 -20.686087 -9.021016 27.063392 44.178787 7.446615 -32.244893 -9.391495 0.779245 7.637798 -0.000000 0.000004 -0.000000 -13.286954 4.342300 -28.772732 30.477919 -1.687421 47.315268 -25.716424 -6.011430 -11.256796 0.000001 0.000005 0.000003 
1.041248 74.135750 -1.536497 -1.127080 0.476255 -0.665175 8.490926 -0.424278 1.966804 -1.650353 0.841836 -1.002107 -5.343042 1.601896 -0.028329 -5.238459 1.179563 0.723122 0.000002 -0.000001 0.000000 1.789689 -5.009723 -1.088007 -21.018790 -7.374967 8.657962 -3.548227 13.122978 13.621058 0.000009 -0.000005 -0.000003 0.490061 1.918787 -1.964016 -22.880205 9.385461 -5.530899 26.269831 -2.448255 -14.971375 -0.000001 0.000001 0.000001 -19.287826 -8.124012 25.779352 40.992012 7.393645 -30.733211 -8.299272 2.362070 7.277373 0.000001 -0.000004 0.000000 -12.910540 4.197387 -26.990425 28.476437 -1.929450 45.662642 -26.233942 -5.993875 -11.016209 0.000001 0.000002 0.000001 
0.830206 74.627007 -1.585338 0.242041 0.358320 -0.509129 7.380409 -0.445829 2.275663 -0.262745 0.779717 -0.908736 -6.292414 1.796891 -0.442439 -5.302193 1.094891 0.752418 0.000002 0.000001 0.000000 2.093828 -5.198984 -2.520609 -14.335946 -2.807435 8.876306 -3.917820 7.696598 5.631289 0.000002 -0.000007 -0.000000 0.350185 1.567252 -1.112936 -18.177783 6.761384 -4.762406 21.977238 2.409492 -11.533386 0.000001 -0.000001 0.000001 -17.369760 -6.847089 23.553931 36.648405 7.500013 -27.307899 -8.189737 3.215494 7.702390 -0.000001 0.000002 -0.000000 -11.910302 3.607632 -24.777242 24.976453 -2.324675 43.911129 -27.481148 -6.254660 -12.214673 0.000001 0.000003 -0.000000 
0.584393 75.223045 -1.607589 0.444315 0.340033 -0.409810 7.120407 -0.438142 2.540629 0.577716 0.719221 -0.866358 -6.872429 1.415446 -0.794836 -4.592128 1.285741 0.238461 0.000003 -0.000000 -0.000000 1.812979 -3.410910 -3.564375 -8.796266 0.914064 8.399303 -2.902081 1.967979 -0.273725 0.000002 -0.000005 -0.000003 0.238125 1.278843 -0.329351 -13.645664 4.490665 -3.602445 18.391666 7.131138 -8.425150 0.000003 -0.000002 -0.000002 -15.904596 -5.934992 21.254951 34.211304 7.975580 -23.535131 -8.080493 2.883523 7.480503 -0.000001 -0.000001 -0.000002 -10.883701 3.020705 -22.612697 23.076865 -2.781749 41.752188 -28.483550 -5.502322 -11.534545 -0.000001 0.000001 -0.000000 
0.186483 76.132957 -1.626166 0.199155 0.751820 -0.472742 8.362633 -0.498353 2.744541 -1.434414 1.029311 -1.176373 -4.788852 1.806614 -0.665637 -5.754843 0.852714 0.579677 0.000002 -0.000001 -0.000000 1.930896 -2.187290 -2.894812 -5.531290 1.719761 6.824860 -3.559253 1.541033 -1.734524 0.000005 -0.000004 -0.000000 -0.126996 -0.452009 -1.520786 -13.917215 5.772185 -3.008171 17.127975 4.859382 -8.227889 -0.000003 -0.000003 0.000001 -13.800343 -4.762242 17.704643 30.183545 8.003074 -17.207553 -6.761156 2.201243 6.015585 -0.000002 -0.000000 -0.000003 -9.902795 2.714986 -18.704215 21.649538 -3.149879 38.031893 -29.632837 -4.642191 -10.535521 0.000001 -0.000001 -0.000001 
-0.380640 77.406342 -1.637698 0.294569 0.079109 -0.719897 7.123193 -0.465228 2.475001 -1.293618 1.123557 -1.444000 -4.177179 3.133594 -0.048170 -5.742484 0.793075 0.453161 -0.000000 -0.000000 -0.000000 1.695099 -1.825144 -3.150320 -4.417780 2.808639 6.543506 -0.048684 1.583490 0.244755 0.000006 -0.000006 0.000002 -0.471519 -1.865121 -0.657105 -10.108572 3.641646 -2.522942 16.875108 8.101271 -6.710029 -0.000001 -0.000002 0.000003 -10.929934 -3.289983 14.025409 24.879208 7.368334 -9.880138 -4.645367 0.909980 3.514238 -0.000001 -0.000001 -0.000003 -9.575952 2.975185 -13.088913 20.000951 -3.437666 32.705862 -30.775371 -4.499026 -10.725616 0.000001 0.000009 0.000004 
-1.025554 78.815773 -1.611950 -0.437466 -0.763956 -0.882898 7.735585 -0.396648 1.777084 -1.888387 1.130647 -1.606899 -3.202411 4.298589 0.628984 -4.589227 0.780480 0.179085 0.000002 -0.000000 0.000000 1.535879 -1.439666 -3.569751 -3.364373 4.007061 7.112840 1.133258 2.390306 2.222467 0.000005 -0.000002 -0.000004 -0.352627 -1.354328 0.022107 -6.734356 1.579066 -2.370400 14.725697 9.187430 -5.427766 -0.000002 -0.000003 0.000001 -8.513887 -2.083033 11.037059 20.957423 6.927777 -3.134434 -4.087010 -2.380280 1.632830 -0.000001 0.000000 0.000000 -9.327627 3.132467 -8.072703 19.854865 -4.124273 27.429261 -30.693142 -3.149985 -8.559713 -0.000003 0.000002 0.000001 
-1.882260 80.520645 -1.610059 -0.170741 -0.619255 -1.574653 6.635327 -0.314147 1.747042 0.582326 1.031965 -1.484852 -4.606060 4.458328 0.487769 -4.103688 0.682669 -0.050150 0.000001 0.000001 -0.000000 1.141742 0.173804 -3.975405 -0.753802 6.165884 8.175141 3.072643 1.106178 4.333889 0.000003 -0.000003 -0.000002 -0.569669 -2.607482 0.295494 -3.162401 0.232267 -1.788460 14.463742 14.223857 -4.632430 0.000001 0.000003 -0.000000 -7.882472 -2.180330 7.716288 16.328083 5.733504 4.411457 -1.261653 -5.056813 -1.781448 0.000001 0.000001 0.000002 -7.362587 2.860521 -2.275435 16.257478 -3.954125 22.019398 -30.716392 -3.247902 -8.734688 -0.000000 0.000003 0.000002 
-2.884312 82.424774 -1.606101 0.509599 -0.821025 -2.138576 4.980825 -0.181108 1.522262 2.033835 0.784953 -1.215949 -4.626547 4.431027 0.338359 -5.772027 0.937725 -0.444640 0.000001 -0.000001 -0.000000 0.863204 1.500364 -4.819418 1.492186 8.726984 9.329895 3.463045 3.222331 7.379536 0.000003 -0.000008 -0.000001 -0.644427 -3.310509 1.205889 0.146550 -1.730547 -1.412898 15.791638 19.354458 -4.733411 0.000001 0.000001 -0.000002 -9.009175 -2.974051 4.520029 11.853404 4.291125 9.892702 0.898066 -5.405442 -3.406933 -0.000004 -0.000004 0.000001 -4.849970 2.463937 3.606289 11.661760 -3.483082 15.922800 -29.993113 -2.681923 -7.853181 -0.000000 0.000000 0.000001 
-3.899773 84.303513 -1.596358 1.332980 -0.979232 -2.352845 4.724236 -0.116010 1.058759 -0.433666 0.651238 -1.082367 -2.533400 3.993637 0.294549 -7.462973 1.269336 -1.087368 0.000001 -0.000000 -0.000001 1.131327 2.186649 -5.403705 3.261544 10.299993 10.202055 1.463809 6.476110 10.075999 0.000003 -0.000001 -0.000003 -0.385263 -3.572599 1.693083 2.104059 -2.407542 -1.250034 16.458065 21.089558 -5.494792 -0.000003 0.000002 0.000002 -9.984734 -3.454681 2.307615 9.253467 3.635915 12.200410 0.685258 -5.065900 -2.870184 -0.000001 0.000000 -0.000001 -2.702477 2.178158 8.050442 7.323257 -2.944756 10.875120 -28.798769 -1.736538 -6.717558 -0.000002 0.000005 0.000001 
